<svg xmlns="http://www.w3.org/2000/svg" width="152" height="96" viewBox="0 0 152 96" fill="none"><path d="M145.318 51.3164H148.029V51.6219H146.846V55.02H146.502V51.6219H145.318V51.3164Z" fill="#FEFCE4"></path><path d="M148.525 55.02V51.3164H149.06L150.282 54.6L151.465 51.3164H152V55.02H151.656V51.6982L150.434 55.02H150.091L148.869 51.6982V55.02H148.525Z" fill="#FEFCE4"></path><path d="M0 51.1631H16.3798C21.9543 51.1631 24.7798 53.2631 24.7798 57.3867C24.7798 60.2884 23.4052 62.1593 20.4652 63.0757C23.7489 63.9539 25.4288 65.9775 25.4288 69.1465C25.4288 72.9647 23.0998 75.4465 17.2198 75.4465H0V51.1631ZM14.2035 61.0521C16.3798 61.0521 17.1435 60.403 17.1435 59.0666C17.1435 57.8067 16.3417 57.0812 14.2035 57.0812H7.63629V61.0521H14.2035ZM15.0053 69.5665C16.9907 69.5665 17.7925 68.8411 17.7925 67.5811C17.7925 66.2448 17.0289 65.5957 15.0053 65.5957H7.63629V69.5665H15.0053Z" fill="#5DB246"></path><path d="M27.873 65.9775V51.1631H35.5093V65.8248C35.5093 68.1538 37.4184 69.4138 40.8547 69.4138C44.2911 69.4138 46.2001 68.1538 46.2001 65.8248V51.1631H53.8364V65.9775C53.8364 72.2392 49.1019 75.8283 40.8547 75.8283C32.6457 75.8283 27.873 72.2392 27.873 65.9775Z" fill="#5DB246"></path><path d="M57.1953 51.1631H70.9788C78.9969 51.1631 84.1514 55.8976 84.1514 63.343C84.1514 70.7883 78.9969 75.5228 70.9788 75.5228H57.1953V51.1631ZM70.9788 69.2229C74.2624 69.2229 76.4769 66.8175 76.4769 63.2666C76.4769 59.7921 74.2624 57.3867 70.9788 57.3867H64.8316V69.2229H70.9788Z" fill="#5DB246"></path><path d="M87.0537 51.1631H100.837C108.855 51.1631 114.01 55.8976 114.01 63.343C114.01 70.7883 108.855 75.5228 100.837 75.5228H87.0537V51.1631ZM100.837 69.2229C104.121 69.2229 106.335 66.8175 106.335 63.2666C106.335 59.7921 104.121 57.3867 100.837 57.3867H94.69V69.2229H100.837Z" fill="#5DB246"></path><path d="M124.662 68.6502L112.864 51.1631H122.028L128.06 60.4794H128.824L134.857 51.1631H144.02L132.337 68.4975V75.5228H124.701V68.6502H124.662Z" fill="#5DB246"></path><path d="M96.1792 22.0307H92.552V20.8089C92.552 9.31627 83.2357 0 71.7431 0H41.9234C27.9872 0 16.7236 11.3017 16.7236 25.1997V42.6868H34.9362V26.8415C34.9362 25.6961 35.8525 24.8179 36.9598 24.8179H40.0907C41.2361 24.8179 42.1143 25.7343 42.1143 26.8415V42.6868H77.5848V26.5361C77.5848 25.5816 78.3485 24.7798 79.3412 24.7798H83.083C84.0375 24.7798 84.8393 25.5434 84.8393 26.5361V42.6868H92.552V24.7416H96.1792V22.0307ZM79.0357 15.8071C77.8903 15.8071 76.9358 14.8526 76.9358 13.7071C76.9358 12.5617 77.8903 11.6072 79.0357 11.6072C80.1812 11.6072 81.1357 12.5617 81.1357 13.7071C81.1357 14.8526 80.2194 15.8071 79.0357 15.8071Z" fill="#FEFCE4"></path><path d="M118.592 24.207H105.458C99.6543 24.207 94.958 28.9033 94.958 34.7069V42.3814H102.709V35.6615C102.709 35.2033 103.091 34.8215 103.549 34.8215H104.923C105.382 34.8215 105.763 35.2033 105.763 35.6615V42.4196H120.883V35.5087C120.883 35.0887 121.227 34.7833 121.609 34.7833H123.212C123.632 34.7833 123.938 35.1269 123.938 35.5087V42.4196H127.221V32.9124C127.298 28.1015 123.403 24.207 118.592 24.207ZM121.532 30.9651C121.036 30.9651 120.654 30.5833 120.654 30.087C120.654 29.5906 121.036 29.2088 121.532 29.2088C122.029 29.2088 122.41 29.5906 122.41 30.087C122.449 30.5452 122.029 30.9651 121.532 30.9651Z" fill="#FEFCE4"></path><path d="M18.8232 95.606V82.8916H25.7723V84.8389H21.4578V87.9697H25.3904V89.917H21.4578V93.6206H25.8868V95.5678H18.8232V95.606Z" fill="#FEFCE4"></path><path d="M30.5068 82.8916H34.9359C38.4104 82.8916 39.0595 85.2207 39.0595 89.1915C39.0595 91.1388 39.3649 95.606 34.8213 95.606H30.5068V82.8916ZM33.1414 93.6588H34.4395C36.0431 93.6588 36.3868 92.437 36.3868 89.2679C36.3868 86.9388 36.3868 84.877 34.5541 84.877H33.1795V93.6588H33.1414Z" fill="#FEFCE4"></path><path d="M52.6134 82.8916V91.9024C52.6134 93.8115 51.5443 95.7969 48.2989 95.7969C45.3589 95.7969 43.9844 94.2697 43.9844 91.9024V82.8916H46.6571V91.7497C46.6571 93.3151 47.3443 93.926 48.2989 93.926C49.4443 93.926 49.9789 93.1624 49.9789 91.7497V82.8916H52.6134Z" fill="#FEFCE4"></path><path d="M57.4629 89.2684C57.4629 85.9084 57.4629 82.7012 61.8538 82.7012C64.5646 82.7012 65.6719 84.1902 65.5574 86.9393H62.961C62.961 85.2593 62.6556 84.6102 61.8538 84.6102C60.3647 84.6102 60.1738 86.023 60.1738 89.2684C60.1738 92.5138 60.3647 93.9265 61.8538 93.9265C63.0756 93.9265 63.0374 92.3229 63.0756 91.3302H65.7101C65.7101 94.7283 64.3355 95.8356 61.8538 95.8356C57.4629 95.8356 57.4629 92.5902 57.4629 89.2684Z" fill="#FEFCE4"></path><path d="M69.2227 95.606L72.7353 82.8916H76.248L79.6844 95.606H76.8971L76.2099 92.7806H72.5826L71.8572 95.606H69.2227ZM74.3771 85.3734L73.1172 90.8715H75.6371L74.3771 85.3734Z" fill="#FEFCE4"></path><path d="M90.2988 82.8916V84.9916H87.3207V95.606H84.648V84.9916H81.708V82.8916H90.2988Z" fill="#FEFCE4"></path><path d="M94.3457 95.606V82.8916H97.0184V95.606H94.3457Z" fill="#FEFCE4"></path><path d="M101.944 89.2684C101.944 85.9084 101.944 82.7012 106.335 82.7012C110.726 82.7012 110.726 85.9084 110.726 89.2684C110.726 92.5902 110.726 95.8356 106.335 95.8356C101.944 95.8356 101.944 92.5902 101.944 89.2684ZM108.015 89.2684C108.015 86.023 107.824 84.6102 106.335 84.6102C104.846 84.6102 104.655 86.023 104.655 89.2684C104.655 92.5138 104.846 93.9265 106.335 93.9265C107.824 93.9265 108.015 92.5138 108.015 89.2684Z" fill="#FEFCE4"></path><path d="M115.651 95.606V82.8916H119.24L122.639 91.7115H122.677V82.8916H125.159V95.606H121.646L118.171 86.2897H118.133V95.606H115.651Z" fill="#FEFCE4"></path></svg>