<svg xmlns="http://www.w3.org/2000/svg" xmlns:xlink="http://www.w3.org/1999/xlink" width="8000" zoomAndPan="magnify" viewBox="0 0 6000 1499.999933" height="2000" preserveAspectRatio="xMidYMid meet" version="1.0"><defs><g/><clipPath id="80cabe2ad3"><rect x="0" width="3596" y="0" height="1500"/></clipPath><clipPath id="75221d2524"><path d="M 3595 98 L 4364 98 L 4364 947 L 3595 947 Z M 3595 98 " clip-rule="nonzero"/></clipPath><clipPath id="79cf029c01"><path d="M 4587.140625 348.160156 L 4193.957031 946.839844 L 3595.273438 553.65625 L 3988.460938 -45.023438 Z M 4587.140625 348.160156 " clip-rule="nonzero"/></clipPath><clipPath id="c514a82af7"><path d="M 4594.949219 336.277344 L 3555.371094 1919.175781 L 2956.691406 1525.988281 L 3996.265625 -56.910156 Z M 4594.949219 336.277344 " clip-rule="nonzero"/></clipPath></defs><g transform="matrix(1, 0, 0, 1, 1841, 0.000000000000112861)"><g clip-path="url(#80cabe2ad3)"><g fill="#663130" fill-opacity="1"><g transform="translate(7.175618, 1145.466183)"><g><path d="M 381.171875 -805.453125 C 425.796875 -805.453125 466.257812 -799.585938 502.5625 -787.859375 C 538.863281 -776.140625 567.789062 -758.742188 589.34375 -735.671875 C 610.894531 -712.609375 621.671875 -683.679688 621.671875 -648.890625 C 621.671875 -629.984375 615.804688 -614.859375 604.078125 -603.515625 C 592.359375 -592.171875 577.046875 -586.5 558.140625 -586.5 C 539.234375 -586.5 524.296875 -592.171875 513.328125 -603.515625 C 502.367188 -614.859375 496.890625 -629.984375 496.890625 -648.890625 C 496.890625 -666.285156 502.367188 -681.222656 513.328125 -693.703125 C 524.296875 -706.179688 539.234375 -712.421875 558.140625 -712.421875 C 577.804688 -712.421875 593.3125 -703.722656 604.65625 -686.328125 C 593.3125 -722.628906 567.21875 -749.664062 526.375 -767.4375 C 485.539062 -785.21875 437.140625 -794.109375 381.171875 -794.109375 C 314.617188 -794.109375 263.566406 -782.570312 228.015625 -759.5 C 192.472656 -736.4375 174.703125 -697.675781 174.703125 -643.21875 C 174.703125 -594.820312 192.285156 -556.820312 227.453125 -529.21875 C 262.617188 -501.613281 314.238281 -474.953125 382.3125 -449.234375 C 452.644531 -421.253906 506.71875 -395.160156 544.53125 -370.953125 C 582.34375 -346.753906 608.625 -320.660156 623.375 -292.671875 C 638.125 -264.691406 645.5 -231.039062 645.5 -191.71875 C 645.5 -159.195312 639.445312 -129.890625 627.34375 -103.796875 C 615.238281 -77.703125 595.195312 -55.960938 567.21875 -38.578125 C 514.28125 -5.296875 433.359375 11.34375 324.453125 11.34375 C 273.023438 11.34375 227.269531 4.726562 187.1875 -8.5 C 147.101562 -21.738281 115.710938 -41.59375 93.015625 -68.0625 C 70.328125 -94.53125 58.984375 -127.804688 58.984375 -167.890625 C 58.984375 -186.796875 64.46875 -201.734375 75.4375 -212.703125 C 86.40625 -223.671875 101.34375 -229.15625 120.25 -229.15625 C 136.132812 -229.15625 150.691406 -224.425781 163.921875 -214.96875 C 177.160156 -205.519531 183.78125 -189.828125 183.78125 -167.890625 C 183.78125 -146.710938 177.160156 -130.832031 163.921875 -120.25 C 150.691406 -109.664062 136.132812 -104.375 120.25 -104.375 C 99.070312 -104.375 83.566406 -111.9375 73.734375 -127.0625 C 85.078125 -83.945312 113.0625 -51.988281 157.6875 -31.1875 C 202.3125 -10.394531 257.898438 0 324.453125 0 C 401.585938 0 458.304688 -13.800781 494.609375 -41.40625 C 530.910156 -69.007812 549.0625 -106.632812 549.0625 -154.28125 C 549.0625 -183.019531 543.390625 -207.785156 532.046875 -228.578125 C 520.703125 -249.378906 500.28125 -268.664062 470.78125 -286.4375 C 441.289062 -304.21875 398.941406 -323.316406 343.734375 -343.734375 C 280.960938 -368.691406 230.101562 -393.269531 191.15625 -417.46875 C 152.207031 -441.675781 123.65625 -468.710938 105.5 -498.578125 C 87.351562 -528.453125 78.28125 -564.566406 78.28125 -606.921875 C 78.28125 -640.203125 83.757812 -669.128906 94.71875 -693.703125 C 105.6875 -718.285156 123.273438 -738.894531 147.484375 -755.53125 C 172.429688 -773.6875 204.378906 -786.546875 243.328125 -794.109375 C 282.285156 -801.671875 328.234375 -805.453125 381.171875 -805.453125 Z M 381.171875 -805.453125 "/></g></g></g><g fill="#663130" fill-opacity="1"><g transform="translate(708.231497, 1145.466183)"><g><path d="M 271.125 -578.5625 C 309.695312 -578.5625 344.109375 -576.101562 374.359375 -571.1875 C 404.609375 -566.269531 430.320312 -557.382812 451.5 -544.53125 C 505.957031 -514.28125 533.1875 -463.226562 533.1875 -391.375 L 533.1875 -86.21875 C 533.1875 -65.039062 534.882812 -48.96875 538.28125 -38 C 541.6875 -27.03125 548.875 -19.84375 559.84375 -16.4375 C 570.8125 -13.039062 586.882812 -11.34375 608.0625 -11.34375 L 608.0625 0 L 433.359375 0 L 433.359375 -138.40625 C 418.984375 -87.726562 393.265625 -50.097656 356.203125 -25.515625 C 319.148438 -0.941406 276.800781 11.34375 229.15625 11.34375 C 173.945312 11.34375 131.59375 -0.941406 102.09375 -25.515625 C 72.601562 -50.097656 57.859375 -85.457031 57.859375 -131.59375 C 57.859375 -199.65625 88.109375 -248.8125 148.609375 -279.0625 C 209.109375 -309.320312 304.023438 -324.828125 433.359375 -325.578125 L 433.359375 -416.34375 C 433.359375 -465.5 419.363281 -502.929688 391.375 -528.640625 C 363.394531 -554.359375 323.3125 -567.21875 271.125 -567.21875 C 222.726562 -567.21875 185.859375 -559.84375 160.515625 -545.09375 C 135.179688 -530.34375 118.359375 -512.003906 110.046875 -490.078125 C 119.867188 -502.179688 132.722656 -508.234375 148.609375 -508.234375 C 166.765625 -508.234375 180.566406 -502.9375 190.015625 -492.34375 C 199.472656 -481.757812 204.203125 -468.144531 204.203125 -451.5 C 204.203125 -436.375 199.851562 -423.515625 191.15625 -412.921875 C 182.457031 -402.335938 168.273438 -397.046875 148.609375 -397.046875 C 129.703125 -397.046875 115.519531 -402.148438 106.0625 -412.359375 C 96.613281 -422.578125 91.890625 -435.625 91.890625 -451.5 C 91.890625 -485.539062 105.691406 -515.226562 133.296875 -540.5625 C 160.898438 -565.894531 206.84375 -578.5625 271.125 -578.5625 Z M 433.359375 -233.6875 L 433.359375 -315.375 C 331.253906 -314.613281 258.457031 -300.242188 214.96875 -272.265625 C 171.488281 -244.285156 149.75 -198.53125 149.75 -135 C 149.75 -97.9375 158.820312 -69.003906 176.96875 -48.203125 C 195.125 -27.410156 223.863281 -17.015625 263.1875 -17.015625 C 292.6875 -17.015625 320.476562 -24.390625 346.5625 -39.140625 C 372.65625 -53.890625 393.644531 -77.144531 409.53125 -108.90625 C 425.414062 -140.664062 433.359375 -182.257812 433.359375 -233.6875 Z M 433.359375 -233.6875 "/></g></g></g><g fill="#663130" fill-opacity="1"><g transform="translate(1341.223829, 1145.466183)"><g><path d="M 28.359375 -552.46875 C 63.148438 -552.46875 92.644531 -554.359375 116.84375 -558.140625 C 141.050781 -561.921875 166.007812 -568.726562 191.71875 -578.5625 L 203.0625 -578.5625 L 203.0625 -456.046875 C 213.65625 -493.097656 232.375 -522.78125 259.21875 -545.09375 C 286.0625 -567.40625 324.820312 -578.5625 375.5 -578.5625 C 423.144531 -578.5625 461.90625 -569.484375 491.78125 -551.328125 C 521.65625 -533.179688 543.585938 -508.984375 557.578125 -478.734375 C 571.566406 -448.484375 578.5625 -414.828125 578.5625 -377.765625 L 578.5625 -86.21875 C 578.5625 -65.039062 580.257812 -48.96875 583.65625 -38 C 587.0625 -27.03125 594.054688 -19.84375 604.640625 -16.4375 C 615.234375 -13.039062 631.117188 -11.34375 652.296875 -11.34375 L 652.296875 0 L 478.734375 0 L 478.734375 -390.25 C 478.734375 -435.625 468.710938 -473.625 448.671875 -504.25 C 428.628906 -534.882812 393.648438 -550.203125 343.734375 -550.203125 C 306.671875 -550.203125 277.929688 -541.503906 257.515625 -524.109375 C 237.097656 -506.710938 222.914062 -483.457031 214.96875 -454.34375 C 207.03125 -425.226562 203.0625 -393.648438 203.0625 -359.609375 L 203.0625 -86.21875 C 203.0625 -65.039062 204.765625 -48.96875 208.171875 -38 C 211.578125 -27.03125 218.757812 -19.84375 229.71875 -16.4375 C 240.6875 -13.039062 256.757812 -11.34375 277.9375 -11.34375 L 277.9375 0 L 28.359375 0 L 28.359375 -11.34375 C 50.296875 -11.34375 66.554688 -13.039062 77.140625 -16.4375 C 87.734375 -19.84375 94.726562 -27.03125 98.125 -38 C 101.53125 -48.96875 103.234375 -65.039062 103.234375 -86.21875 L 103.234375 -466.25 C 103.234375 -488.9375 101.71875 -505.570312 98.6875 -516.15625 C 95.664062 -526.75 88.859375 -533.554688 78.265625 -536.578125 C 67.679688 -539.609375 51.046875 -541.125 28.359375 -541.125 Z M 28.359375 -552.46875 "/></g></g></g><g fill="#663130" fill-opacity="1"><g transform="translate(2019.591852, 1145.466183)"><g><path d="M 153.15625 -822.46875 C 175.082031 -822.46875 191.90625 -816.601562 203.625 -804.875 C 215.351562 -793.15625 221.21875 -776.332031 221.21875 -754.40625 C 221.21875 -733.226562 215.351562 -716.585938 203.625 -704.484375 C 191.90625 -692.378906 175.082031 -686.328125 153.15625 -686.328125 C 131.976562 -686.328125 115.335938 -692.378906 103.234375 -704.484375 C 91.128906 -716.585938 85.078125 -733.226562 85.078125 -754.40625 C 85.078125 -776.332031 91.128906 -793.15625 103.234375 -804.875 C 115.335938 -816.601562 131.976562 -822.46875 153.15625 -822.46875 Z M 28.359375 -552.46875 C 63.148438 -552.46875 92.644531 -554.359375 116.84375 -558.140625 C 141.050781 -561.921875 166.007812 -568.726562 191.71875 -578.5625 L 203.0625 -578.5625 L 203.0625 -86.21875 C 203.0625 -65.039062 204.765625 -48.96875 208.171875 -38 C 211.578125 -27.03125 218.570312 -19.84375 229.15625 -16.4375 C 239.738281 -13.039062 255.617188 -11.34375 276.796875 -11.34375 L 276.796875 0 L 28.359375 0 L 28.359375 -11.34375 C 50.296875 -11.34375 66.554688 -13.039062 77.140625 -16.4375 C 87.734375 -19.84375 94.726562 -27.03125 98.125 -38 C 101.53125 -48.96875 103.234375 -65.039062 103.234375 -86.21875 L 103.234375 -466.25 C 103.234375 -488.9375 101.71875 -505.570312 98.6875 -516.15625 C 95.664062 -526.75 88.859375 -533.554688 78.265625 -536.578125 C 67.679688 -539.609375 51.046875 -541.125 28.359375 -541.125 Z M 28.359375 -552.46875 "/></g></g></g><g fill="#663130" fill-opacity="1"><g transform="translate(2323.609662, 1145.466183)"><g><path d="M 11.34375 -567.21875 L 300.625 -567.21875 L 300.625 -555.875 C 271.882812 -555.875 250.894531 -552.09375 237.65625 -544.53125 C 224.425781 -536.96875 217.8125 -523.351562 217.8125 -503.6875 C 217.8125 -489.320312 221.972656 -468.523438 230.296875 -441.296875 L 365.28125 -26.09375 L 486.671875 -411.796875 C 498.773438 -448.097656 504.828125 -476.835938 504.828125 -498.015625 C 504.828125 -519.953125 497.640625 -535.078125 483.265625 -543.390625 C 468.898438 -551.710938 446.96875 -555.875 417.46875 -555.875 L 417.46875 -567.21875 L 625.078125 -567.21875 L 625.078125 -555.875 C 603.898438 -555.875 586.503906 -552.660156 572.890625 -546.234375 C 559.273438 -539.804688 547.171875 -527.328125 536.578125 -508.796875 C 525.992188 -490.265625 514.273438 -462.09375 501.421875 -424.28125 L 314.234375 169.03125 C 285.492188 252.21875 229.53125 293.8125 146.34375 293.8125 C 105.5 293.8125 72.785156 283.410156 48.203125 262.609375 C 23.628906 241.816406 11.34375 213.269531 11.34375 176.96875 C 11.34375 158.820312 17.015625 144.078125 28.359375 132.734375 C 39.703125 121.390625 54.453125 115.71875 72.609375 115.71875 C 90.753906 115.71875 105.3125 121.390625 116.28125 132.734375 C 127.25 144.078125 132.734375 158.820312 132.734375 176.96875 C 132.734375 195.125 127.25 209.679688 116.28125 220.640625 C 105.3125 231.609375 90.375 237.09375 71.46875 237.09375 C 54.070312 237.09375 40.457031 231.046875 30.625 218.953125 C 38.945312 239.367188 53.316406 255.054688 73.734375 266.015625 C 94.160156 276.984375 118.363281 282.46875 146.34375 282.46875 C 185.664062 282.46875 218.179688 273.390625 243.890625 255.234375 C 269.609375 237.085938 289.273438 208.351562 302.890625 169.03125 L 356.21875 0 L 268.859375 0 L 120.25 -465.125 C 111.925781 -489.320312 103.601562 -507.847656 95.28125 -520.703125 C 86.96875 -533.566406 76.570312 -542.644531 64.09375 -547.9375 C 51.613281 -553.226562 34.03125 -555.875 11.34375 -555.875 Z M 11.34375 -567.21875 "/></g></g></g><g fill="#663130" fill-opacity="1"><g transform="translate(2958.870825, 1145.466183)"><g><path d="M 271.125 -578.5625 C 309.695312 -578.5625 344.109375 -576.101562 374.359375 -571.1875 C 404.609375 -566.269531 430.320312 -557.382812 451.5 -544.53125 C 505.957031 -514.28125 533.1875 -463.226562 533.1875 -391.375 L 533.1875 -86.21875 C 533.1875 -65.039062 534.882812 -48.96875 538.28125 -38 C 541.6875 -27.03125 548.875 -19.84375 559.84375 -16.4375 C 570.8125 -13.039062 586.882812 -11.34375 608.0625 -11.34375 L 608.0625 0 L 433.359375 0 L 433.359375 -138.40625 C 418.984375 -87.726562 393.265625 -50.097656 356.203125 -25.515625 C 319.148438 -0.941406 276.800781 11.34375 229.15625 11.34375 C 173.945312 11.34375 131.59375 -0.941406 102.09375 -25.515625 C 72.601562 -50.097656 57.859375 -85.457031 57.859375 -131.59375 C 57.859375 -199.65625 88.109375 -248.8125 148.609375 -279.0625 C 209.109375 -309.320312 304.023438 -324.828125 433.359375 -325.578125 L 433.359375 -416.34375 C 433.359375 -465.5 419.363281 -502.929688 391.375 -528.640625 C 363.394531 -554.359375 323.3125 -567.21875 271.125 -567.21875 C 222.726562 -567.21875 185.859375 -559.84375 160.515625 -545.09375 C 135.179688 -530.34375 118.359375 -512.003906 110.046875 -490.078125 C 119.867188 -502.179688 132.722656 -508.234375 148.609375 -508.234375 C 166.765625 -508.234375 180.566406 -502.9375 190.015625 -492.34375 C 199.472656 -481.757812 204.203125 -468.144531 204.203125 -451.5 C 204.203125 -436.375 199.851562 -423.515625 191.15625 -412.921875 C 182.457031 -402.335938 168.273438 -397.046875 148.609375 -397.046875 C 129.703125 -397.046875 115.519531 -402.148438 106.0625 -412.359375 C 96.613281 -422.578125 91.890625 -435.625 91.890625 -451.5 C 91.890625 -485.539062 105.691406 -515.226562 133.296875 -540.5625 C 160.898438 -565.894531 206.84375 -578.5625 271.125 -578.5625 Z M 433.359375 -233.6875 L 433.359375 -315.375 C 331.253906 -314.613281 258.457031 -300.242188 214.96875 -272.265625 C 171.488281 -244.285156 149.75 -198.53125 149.75 -135 C 149.75 -97.9375 158.820312 -69.003906 176.96875 -48.203125 C 195.125 -27.410156 223.863281 -17.015625 263.1875 -17.015625 C 292.6875 -17.015625 320.476562 -24.390625 346.5625 -39.140625 C 372.65625 -53.890625 393.644531 -77.144531 409.53125 -108.90625 C 425.414062 -140.664062 433.359375 -182.257812 433.359375 -233.6875 Z M 433.359375 -233.6875 "/></g></g></g></g></g><g clip-path="url(#75221d2524)"><g clip-path="url(#79cf029c01)"><g clip-path="url(#c514a82af7)"><path fill="#663130" d="M 3522.234375 1763.847656 C 3576.125 1753.75 3628.609375 1733.011719 3672.71875 1700.148438 C 3722.632812 1663.148438 3757.90625 1610.789062 3781.371094 1554.210938 C 3830.921875 1434.378906 3837.855469 1296.71875 3835.539062 1168.441406 C 3833.40625 1037.191406 3810.3125 910.28125 3780.765625 783.113281 C 3750.382812 653.183594 3754.480469 519.84375 3808.613281 396.398438 C 3856.800781 286.710938 3946.117188 187.699219 4068.636719 166.582031 C 4173.050781 148.148438 4289.503906 198.132812 4326.167969 303.035156 C 4347.257812 362.375 4333.15625 425.546875 4295.617188 475.976562 C 4260.820312 522.90625 4210.765625 569.53125 4151.359375 581.308594 C 4124.160156 586.410156 4096.992188 581.375 4075.0625 564.324219 C 4072.179688 561.988281 4068.320312 566.519531 4071 569.164062 C 4148.433594 646.960938 4268.847656 543.636719 4316.226562 480.238281 C 4350.214844 434.542969 4367.871094 382.097656 4361.84375 324.699219 C 4356.066406 273.644531 4335.039062 223.621094 4301.59375 184.429688 C 4225.515625 95.160156 4096.511719 81.097656 3990.480469 117.460938 C 3865.863281 160.609375 3779.402344 273.421875 3741.445312 396.453125 C 3722.617188 457.402344 3714.046875 521.554688 3715.511719 585.234375 C 3716.992188 651.570312 3732.0625 714.027344 3750.523438 777.382812 C 3769.191406 841.761719 3789.597656 905.511719 3802.132812 971.160156 C 3814.464844 1037.117188 3821.066406 1103.726562 3822.140625 1170.683594 C 3823.207031 1236.308594 3819.046875 1301.148438 3808.742188 1365.929688 C 3797.859375 1435.632812 3779.605469 1505.792969 3743.164062 1566.660156 C 3711.480469 1619.609375 3666.839844 1664.046875 3610.289062 1689.625 C 3559.355469 1712.707031 3506.039062 1716.554688 3451.703125 1706.484375 C 3348.765625 1687.023438 3263.292969 1601.296875 3238.84375 1499.996094 C 3215.757812 1404.011719 3245.140625 1255.035156 3363.816406 1241.113281 C 3396.863281 1237.199219 3429.152344 1242.503906 3451.34375 1268.5625 C 3455.269531 1273.347656 3462.496094 1267.054688 3458.570312 1262.269531 C 3381.945312 1167.777344 3246.867188 1223.488281 3189.09375 1308.769531 C 3117.027344 1415.136719 3139.558594 1549.625 3215.390625 1648.011719 C 3286.992188 1741.410156 3408.117188 1785.625 3522.234375 1763.847656 Z M 3522.234375 1763.847656 " fill-opacity="1" fill-rule="nonzero"/></g></g></g><path fill="#663130" d="M 1758.578125 80.464844 C 1807.691406 94.589844 1850.976562 126.058594 1881.222656 167.164062 C 1894.519531 185.066406 1905.535156 204.644531 1914.417969 225.121094 C 1920.453125 238.839844 1925.398438 253.066406 1929.769531 267.523438 C 1922.28125 222.734375 1904.972656 178.476562 1877.148438 141.933594 C 1814.980469 58.25 1698.839844 23.933594 1601.542969 62.691406 C 1539.40625 86.773438 1493.164062 140.265625 1481.300781 206.210938 C 1478.675781 220.15625 1477.511719 234.328125 1477.59375 248.472656 C 1477.863281 336.476562 1512.1875 420.71875 1555.628906 495.734375 C 1562.945312 508.328125 1570.550781 520.742188 1578.386719 533.011719 C 1525.835938 470.320312 1477.484375 404.765625 1442.714844 329.660156 C 1418.117188 273.273438 1406.667969 202.527344 1437.8125 146.496094 C 1450.527344 123.859375 1471.3125 106.503906 1496.132812 98.589844 C 1476.507812 102.417969 1458.070312 112.347656 1443.957031 126.527344 C 1429.4375 140.886719 1419.117188 159.101562 1412.550781 178.359375 C 1407.519531 193.480469 1404.515625 209 1403.230469 224.667969 C 1383.117188 241.121094 1322.878906 296.496094 1324.539062 368.285156 C 1325.246094 398.8125 1327.789062 424.519531 1323.789062 445.777344 C 1296.984375 441.769531 1278.648438 417.167969 1278.648438 417.167969 C 1288.730469 447.414062 1305.09375 458.636719 1318.820312 462.339844 C 1314.769531 471.597656 1308.585938 479.804688 1299.265625 487 C 1265.679688 512.9375 1217.792969 531.894531 1213.46875 548.855469 C 1211.101562 558.148438 1213.585938 568.199219 1230.265625 576.289062 C 1244.148438 583.023438 1249.386719 595.242188 1258.695312 600.230469 C 1258.695312 600.230469 1249.71875 615.695312 1233.753906 621.183594 C 1217.792969 626.667969 1227.269531 650.113281 1239.742188 656.097656 C 1252.210938 662.085938 1263.351562 668.238281 1268.171875 675.554688 C 1268.171875 675.554688 1240.238281 672.558594 1236.746094 690.019531 C 1233.257812 707.476562 1257.367188 722.109375 1259.691406 733.414062 C 1262.617188 747.617188 1251.046875 764.675781 1246.226562 782.796875 C 1238.195312 812.988281 1260.691406 842.15625 1301.59375 844.152344 C 1342.496094 846.148438 1433.738281 845.878906 1455.230469 849.640625 C 1515.085938 860.113281 1603.875 938.925781 1623.828125 1065.625 C 1643.78125 1192.324219 1590.90625 1251.183594 1590.90625 1251.183594 C 1590.90625 1251.183594 1752.855469 1146.765625 1724.921875 968.523438 C 1696.988281 790.28125 1527.390625 676.550781 1446.914062 501.632812 C 1386.789062 370.945312 1393.734375 282.699219 1402.484375 243.214844 C 1402.527344 282.34375 1412.464844 321.75 1427.632812 357.523438 C 1451.085938 412.933594 1482.785156 464.558594 1517.519531 513.445312 C 1586.078125 609.980469 1667.171875 695.578125 1735.207031 792.019531 C 1764.152344 833.425781 1790.5625 876.847656 1809.019531 923.742188 C 1851.710938 1032.152344 1841.613281 1160.007812 1780.464844 1259.363281 C 1733.054688 1337.675781 1654.367188 1394.867188 1563.691406 1410.660156 C 1521.5 1418.265625 1477.726562 1417.550781 1435.539062 1410.214844 C 1364.121094 1397.839844 1295.84375 1358.992188 1259.628906 1294.6875 C 1226.914062 1238.589844 1222.339844 1160.265625 1267.230469 1109.410156 C 1283.027344 1091.433594 1304.296875 1077.859375 1328.007812 1073.457031 C 1377.917969 1063.546875 1431.578125 1097.902344 1431.304688 1151.554688 C 1431.296875 1164.378906 1428.160156 1177.277344 1422.972656 1189.332031 C 1429.582031 1177.84375 1434.136719 1165.082031 1435.496094 1151.777344 C 1440.449219 1108.726562 1408.171875 1070.398438 1367.570312 1059.289062 C 1347.1875 1053.351562 1324.847656 1053.789062 1304.484375 1060.058594 C 1256.113281 1074.925781 1220.210938 1118.503906 1208.332031 1166.90625 C 1190.585938 1236.6875 1215.347656 1312.234375 1262.457031 1365.078125 C 1299.90625 1407.722656 1351.597656 1436.832031 1405.917969 1451.589844 C 1587.480469 1499.945312 1752.574219 1420.78125 1834.738281 1275.109375 C 1813.628906 1336.777344 1780.34375 1394.582031 1732.839844 1439.730469 C 1721.160156 1450.808594 1708.625 1461.105469 1695.324219 1470.664062 C 1710.347656 1464.148438 1724.730469 1455.933594 1738.332031 1446.496094 C 1746.804688 1440.679688 1755.121094 1434.113281 1762.875 1427.367188 C 1792.828125 1401.316406 1817.542969 1369.542969 1837.046875 1334.863281 C 1892.914062 1233.875 1907.40625 1112.394531 1883.484375 999.503906 C 1878.265625 966.988281 1869.308594 935.074219 1856.742188 904.636719 C 1835.769531 854.152344 1806.332031 807.652344 1774.074219 763.988281 C 1764.386719 750.902344 1754.402344 738.027344 1744.203125 725.3125 C 1688.117188 645.003906 1628.328125 567.183594 1581.042969 481.339844 C 1539.21875 405.433594 1505.007812 320.574219 1509.203125 232.523438 C 1516.789062 106.878906 1646.316406 47.175781 1758.578125 80.464844 Z M 1758.578125 80.464844 " fill-opacity="1" fill-rule="nonzero"/><g fill="#663130" fill-opacity="1"><g transform="translate(3172.707984, 1430.985097)"><g><path d="M 167.625 -125.53125 L 143.25 0 L 110.390625 0 L 84.359375 -88.0625 L 58.15625 0 L 25.296875 0 L 0.921875 -125.53125 L 31.390625 -125.53125 L 46.15625 -38.953125 L 70.703125 -125.53125 L 97.84375 -125.53125 L 122.390625 -38.953125 L 137.171875 -125.53125 Z M 167.625 -125.53125 "/></g></g></g><g fill="#663130" fill-opacity="1"><g transform="translate(3398.285224, 1430.985097)"><g><path d="M 108 -62.953125 C 108 -69.472656 106.273438 -75.53125 102.828125 -81.125 C 99.378906 -86.726562 94.851562 -91.253906 89.25 -94.703125 C 83.65625 -98.148438 77.597656 -99.875 71.078125 -99.875 C 64.671875 -99.875 58.632812 -98.148438 52.96875 -94.703125 C 47.3125 -91.253906 42.757812 -86.726562 39.3125 -81.125 C 35.875 -75.53125 34.15625 -69.472656 34.15625 -62.953125 C 34.15625 -56.554688 35.875 -50.523438 39.3125 -44.859375 C 42.757812 -39.203125 47.3125 -34.617188 52.96875 -31.109375 C 58.632812 -27.597656 64.671875 -25.84375 71.078125 -25.84375 C 77.597656 -25.84375 83.65625 -27.597656 89.25 -31.109375 C 94.851562 -34.617188 99.378906 -39.203125 102.828125 -44.859375 C 106.273438 -50.523438 108 -56.554688 108 -62.953125 Z M 135.6875 -62.765625 C 135.6875 -54.148438 133.960938 -45.9375 130.515625 -38.125 C 127.066406 -30.3125 122.359375 -23.414062 116.390625 -17.4375 C 110.421875 -11.46875 103.5625 -6.757812 95.8125 -3.3125 C 88.0625 0.125 79.816406 1.84375 71.078125 1.84375 C 62.460938 1.84375 54.242188 0.125 46.421875 -3.3125 C 38.609375 -6.757812 31.71875 -11.46875 25.75 -17.4375 C 19.78125 -23.414062 15.070312 -30.3125 11.625 -38.125 C 8.1875 -45.9375 6.46875 -54.148438 6.46875 -62.765625 C 6.46875 -71.503906 8.1875 -79.75 11.625 -87.5 C 15.070312 -95.257812 19.78125 -102.125 25.75 -108.09375 C 31.71875 -114.0625 38.609375 -118.765625 46.421875 -122.203125 C 54.242188 -125.648438 62.460938 -127.375 71.078125 -127.375 C 79.816406 -127.375 88.0625 -125.648438 95.8125 -122.203125 C 103.5625 -118.765625 110.421875 -114.0625 116.390625 -108.09375 C 122.359375 -102.125 127.066406 -95.257812 130.515625 -87.5 C 133.960938 -79.75 135.6875 -71.503906 135.6875 -62.765625 Z M 135.6875 -62.765625 "/></g></g></g><g fill="#663130" fill-opacity="1"><g transform="translate(3597.465572, 1430.985097)"><g><path d="M 108 -62.953125 C 108 -69.472656 106.273438 -75.53125 102.828125 -81.125 C 99.378906 -86.726562 94.851562 -91.253906 89.25 -94.703125 C 83.65625 -98.148438 77.597656 -99.875 71.078125 -99.875 C 64.671875 -99.875 58.632812 -98.148438 52.96875 -94.703125 C 47.3125 -91.253906 42.757812 -86.726562 39.3125 -81.125 C 35.875 -75.53125 34.15625 -69.472656 34.15625 -62.953125 C 34.15625 -56.554688 35.875 -50.523438 39.3125 -44.859375 C 42.757812 -39.203125 47.3125 -34.617188 52.96875 -31.109375 C 58.632812 -27.597656 64.671875 -25.84375 71.078125 -25.84375 C 77.597656 -25.84375 83.65625 -27.597656 89.25 -31.109375 C 94.851562 -34.617188 99.378906 -39.203125 102.828125 -44.859375 C 106.273438 -50.523438 108 -56.554688 108 -62.953125 Z M 135.6875 -62.765625 C 135.6875 -54.148438 133.960938 -45.9375 130.515625 -38.125 C 127.066406 -30.3125 122.359375 -23.414062 116.390625 -17.4375 C 110.421875 -11.46875 103.5625 -6.757812 95.8125 -3.3125 C 88.0625 0.125 79.816406 1.84375 71.078125 1.84375 C 62.460938 1.84375 54.242188 0.125 46.421875 -3.3125 C 38.609375 -6.757812 31.71875 -11.46875 25.75 -17.4375 C 19.78125 -23.414062 15.070312 -30.3125 11.625 -38.125 C 8.1875 -45.9375 6.46875 -54.148438 6.46875 -62.765625 C 6.46875 -71.503906 8.1875 -79.75 11.625 -87.5 C 15.070312 -95.257812 19.78125 -102.125 25.75 -108.09375 C 31.71875 -114.0625 38.609375 -118.765625 46.421875 -122.203125 C 54.242188 -125.648438 62.460938 -127.375 71.078125 -127.375 C 79.816406 -127.375 88.0625 -125.648438 95.8125 -122.203125 C 103.5625 -118.765625 110.421875 -114.0625 116.390625 -108.09375 C 122.359375 -102.125 127.066406 -95.257812 130.515625 -87.5 C 133.960938 -79.75 135.6875 -71.503906 135.6875 -62.765625 Z M 135.6875 -62.765625 "/></g></g></g><g fill="#663130" fill-opacity="1"><g transform="translate(3796.645897, 1430.985097)"><g><path d="M 38.40625 -25.46875 L 46.703125 -25.46875 C 53.835938 -25.46875 60.082031 -27.128906 65.4375 -30.453125 C 70.789062 -33.773438 74.972656 -38.265625 77.984375 -43.921875 C 81.003906 -49.585938 82.515625 -55.867188 82.515625 -62.765625 C 82.515625 -69.785156 81.003906 -76.09375 77.984375 -81.6875 C 74.972656 -87.289062 70.789062 -91.722656 65.4375 -94.984375 C 60.082031 -98.242188 53.835938 -99.875 46.703125 -99.875 L 38.40625 -99.875 Z M 11.078125 -125.53125 L 48.375 -125.53125 C 57.226562 -125.53125 65.4375 -123.929688 73 -120.734375 C 80.570312 -117.535156 87.1875 -113.101562 92.84375 -107.4375 C 98.507812 -101.78125 102.910156 -95.132812 106.046875 -87.5 C 109.191406 -79.875 110.765625 -71.628906 110.765625 -62.765625 C 110.765625 -53.898438 109.191406 -45.648438 106.046875 -38.015625 C 102.910156 -30.390625 98.539062 -23.742188 92.9375 -18.078125 C 87.34375 -12.421875 80.726562 -7.992188 73.09375 -4.796875 C 65.46875 -1.597656 57.226562 0 48.375 0 L 11.078125 0 Z M 11.078125 -125.53125 "/></g></g></g></svg>