<svg width="24" height="24" viewBox="0 0 24 24" fill="none" xmlns="http://www.w3.org/2000/svg">
<path d="M7.88169 2C6.90151 2 6.06576 2.71036 5.90782 3.67774L5.06174 8.86C4.76174 10.97 5.58174 12.79 6.94174 14.05C8.04174 15.07 9.51174 15.74 11.0517 15.94V19.01C11.0517 19.5623 10.604 20.01 10.0517 20.01H6.55174C6.2756 20.01 6.05174 20.2339 6.05174 20.51V21.51C6.05174 21.7861 6.2756 22.01 6.55174 22.01H17.5517C17.8279 22.01 18.0517 21.7861 18.0517 21.51V20.51C18.0517 20.2339 17.8279 20.01 17.5517 20.01H14.0517C13.4995 20.01 13.0517 19.5623 13.0517 19.01V15.94C14.5917 15.74 16.0517 15.07 17.1617 14.05C18.5217 12.79 19.3417 10.98 19.0417 8.86L18.1957 3.67774C18.0377 2.71036 17.202 2 16.2218 2H7.88169Z" stroke="#5F6880" stroke-width="1.5" stroke-miterlimit="10" stroke-linejoin="round"/>
<path d="M5.50195 8.5L6.62284 8.99817C8.78332 9.95838 11.2401 10.0047 13.4353 9.12666V9.12666C14.4702 8.71269 15.5746 8.5 16.6893 8.5H19.002" stroke="#5F6880" stroke-width="1.5"/>
</svg>
