<svg width="24" height="25" viewBox="0 0 24 25" fill="none" xmlns="http://www.w3.org/2000/svg">
<path d="M10 22.5H14C19 22.5 21 20.5 21 15.5V9.5C21 4.5 19 2.5 14 2.5H10C5 2.5 3 4.5 3 9.5V15.5C3 20.5 5 22.5 10 22.5Z" stroke="#5F6880" stroke-width="1.5" stroke-linecap="round" stroke-linejoin="round"/>
<path d="M16.5 8.08008V9.08008C16.5 9.90008 15.83 10.5801 15 10.5801H9C8.18 10.5801 7.5 9.91008 7.5 9.08008V8.08008C7.5 7.26008 8.17 6.58008 9 6.58008H15C15.83 6.58008 16.5 7.25008 16.5 8.08008Z" stroke="#5F6880" stroke-width="1.5" stroke-linecap="round" stroke-linejoin="round"/>
<path d="M8.13612 14.5H8.14767" stroke="#5F6880" stroke-width="2" stroke-linecap="round" stroke-linejoin="round"/>
<path d="M11.9952 14.5H12.0068" stroke="#5F6880" stroke-width="2" stroke-linecap="round" stroke-linejoin="round"/>
<path d="M15.8543 14.5H15.8659" stroke="#5F6880" stroke-width="2" stroke-linecap="round" stroke-linejoin="round"/>
<path d="M8.13612 18H8.14767" stroke="#5F6880" stroke-width="2" stroke-linecap="round" stroke-linejoin="round"/>
<path d="M11.9952 18H12.0068" stroke="#5F6880" stroke-width="2" stroke-linecap="round" stroke-linejoin="round"/>
<path d="M15.8543 18H15.8659" stroke="#5F6880" stroke-width="2" stroke-linecap="round" stroke-linejoin="round"/>
</svg>
