<svg width="24" height="24" viewBox="0 0 24 24" fill="none" xmlns="http://www.w3.org/2000/svg">
<path d="M21.1003 9.22998H20.3203C19.6078 9.22998 19.0303 9.80753 19.0303 10.52V13.43C19.0303 14.1424 19.6078 14.72 20.3203 14.72H21.1003C21.8127 14.72 22.3903 14.1424 22.3903 13.43V10.52C22.3903 9.80753 21.8127 9.22998 21.1003 9.22998Z" stroke="#5F6880" stroke-width="1.5" stroke-miterlimit="10" stroke-linecap="round"/>
<path d="M3.07 9.22998H2.29C1.57755 9.22998 1 9.80753 1 10.52V13.43C1 14.1424 1.57755 14.72 2.29 14.72H3.07C3.78245 14.72 4.36 14.1424 4.36 13.43V10.52C4.36 9.80753 3.78245 9.22998 3.07 9.22998Z" stroke="#5F6880" stroke-width="1.5" stroke-miterlimit="10" stroke-linecap="round"/>
<path d="M8.22998 15.85C9.14998 16.43 10.24 16.76 11.41 16.76C12.58 16.76 13.67 16.43 14.59 15.85" stroke="#5F6880" stroke-width="1.5" stroke-miterlimit="10" stroke-linecap="round"/>
<path d="M4.39014 11.56V8.29C4.39014 4.81 7.21014 2 10.6801 2H12.7001C16.1801 2 18.9901 4.82 18.9901 8.29V14.87C18.9901 18.35 16.1701 21.16 12.7001 21.16" stroke="#5F6880" stroke-width="1.5" stroke-miterlimit="10" stroke-linecap="round"/>
</svg>
