<svg width="24" height="24" viewBox="0 0 24 24" fill="none" xmlns="http://www.w3.org/2000/svg">
<path d="M22 8V13C22 17 20 19 16 19H15.5C15.19 19 14.89 19.15 14.7 19.4L13.2 21.4C12.54 22.28 11.46 22.28 10.8 21.4L9.3 19.4C9.14 19.18 8.77 19 8.5 19H8C4 19 2 18 2 13V8C2 4 4 2 8 2H12" stroke="#5F6880" stroke-width="1.5" stroke-miterlimit="10" stroke-linecap="round" stroke-linejoin="round"/>
<path d="M15.9965 11H16.0054" stroke="#5F6880" stroke-width="2" stroke-linecap="round" stroke-linejoin="round"/>
<path d="M11.9955 11H12.0045" stroke="#5F6880" stroke-width="2" stroke-linecap="round" stroke-linejoin="round"/>
<path d="M7.99451 11H8.00349" stroke="#5F6880" stroke-width="2" stroke-linecap="round" stroke-linejoin="round"/>
<path d="M17.9682 1.77485L17.9682 1.77485L17.9688 1.77187L18 1.63327L18.0312 1.77187L18.0315 1.77321C18.2241 2.62261 18.8886 3.27644 19.7251 3.46815L19.7251 3.46816L19.7281 3.46883L19.8667 3.5L19.7281 3.53117L19.7268 3.53147C18.8774 3.72412 18.2236 4.38857 18.0318 5.22515L18.0318 5.22514L18.0312 5.22813L18 5.36673L17.9688 5.22813L17.9685 5.22679C17.7759 4.37739 17.1114 3.72356 16.2749 3.53185L16.2749 3.53184L16.2719 3.53117L16.1333 3.5L16.2719 3.46883L16.2732 3.46853C17.1226 3.27588 17.7764 2.61143 17.9682 1.77485Z" stroke="#5F6880" stroke-width="1.5" stroke-linecap="round" stroke-linejoin="round"/>
</svg>
