<svg width="22" height="22" viewBox="0 0 22 22" fill="none" xmlns="http://www.w3.org/2000/svg">
<g clip-path="url(#clip0_8239_461)">
<path d="M14.75 0H6.75C2.33 0 0 2.33 0 6.75V11.75C0 14.18 0.71 15.99 2.1 17.12C2.47 17.42 2.89 17.68 3.36 17.88L3.83 18.6L5.33 20.6C5.79 21.21 6.44 21.56 7.13 21.56C7.82 21.56 8.47 21.21 8.93 20.6L10.43 18.6C10.48 18.54 10.56 18.5 10.63 18.5H14.76C19.18 18.5 21.51 16.17 21.51 11.75V6.75C21.51 2.33 19.18 0 14.76 0H14.75ZM14.75 17H10.62C10.08 17 9.55 17.26 9.22 17.7L7.72 19.7C7.37 20.16 6.87 20.17 6.52 19.7L5.05 17.74L4.48 16.87C4.39 16.74 4.27 16.64 4.12 16.58C3.71 16.42 3.35 16.21 3.04 15.96C2.02 15.13 1.5 13.71 1.5 11.75V6.75C1.5 3.17 3.17 1.5 6.75 1.5H14.75C18.33 1.5 20 3.17 20 6.75V11.75C20 15.33 18.33 17 14.75 17Z" fill="#292D32"/>
<path d="M14.76 8.6C14.21 8.6 13.76 9.05 13.76 9.6C13.76 10.15 14.21 10.6 14.76 10.6C15.31 10.6 15.76 10.15 15.76 9.6C15.76 9.05 15.31 8.6 14.76 8.6Z" fill="#292D32"/>
<path d="M10.75 8.6C10.2 8.6 9.75 9.05 9.75 9.6C9.75 10.15 10.2 10.6 10.75 10.6C11.3 10.6 11.75 10.15 11.75 9.6C11.75 9.05 11.3 8.6 10.75 8.6Z" fill="#292D32"/>
<path d="M6.75 8.6C6.2 8.6 5.75 9.05 5.75 9.6C5.75 10.15 6.2 10.6 6.75 10.6C7.3 10.6 7.75 10.15 7.75 9.6C7.75 9.05 7.3 8.6 6.75 8.6Z" fill="#292D32"/>
</g>
<defs>
<clipPath id="clip0_8239_461">
<rect width="21.5" height="21.56" fill="white"/>
</clipPath>
</defs>
</svg>
