<svg width="24" height="24" viewBox="0 0 24 24" fill="none" xmlns="http://www.w3.org/2000/svg">
<path d="M22 11.1V6.9C22 3.4 20.6 2 17.1 2H12.9C9.4 2 8 3.4 8 6.9V8H11.1C14.6 8 16 9.4 16 12.9V16H17.1C20.6 16 22 14.6 22 11.1Z" stroke="#5F6880" stroke-width="1.5" stroke-linecap="round" stroke-linejoin="round"/>
<path d="M16 17.1V12.9C16 9.4 14.6 8 11.1 8H6.9C3.4 8 2 9.4 2 12.9V17.1C2 20.6 3.4 22 6.9 22H11.1C14.6 22 16 20.6 16 17.1Z" stroke="#5F6880" stroke-width="1.5" stroke-linecap="round" stroke-linejoin="round"/>
<path d="M8.96815 13.2749L8.96816 13.2749L8.96883 13.2719L9 13.1333L9.03117 13.2719L9.03147 13.2732C9.22412 14.1226 9.88857 14.7764 10.7251 14.9682L10.7251 14.9682L10.7281 14.9688L10.8667 15L10.7281 15.0312L10.7268 15.0315C9.87739 15.2241 9.22356 15.8886 9.03185 16.7251L9.03184 16.7251L9.03117 16.7281L9 16.8667L8.96883 16.7281L8.96853 16.7268C8.77588 15.8774 8.11143 15.2236 7.27485 15.0318L7.27485 15.0318L7.27187 15.0312L7.13327 15L7.27187 14.9688L7.27321 14.9685C8.12261 14.7759 8.77644 14.1114 8.96815 13.2749Z" stroke="#5F6880" stroke-width="1.5" stroke-linecap="round" stroke-linejoin="round"/>
</svg>
